<?xml version="1.0" standalone="no"?>
<!DOCTYPE svg PUBLIC "-//W3C//DTD SVG 20010904//EN"
 "http://www.w3.org/TR/2001/REC-SVG-20010904/DTD/svg10.dtd">
<svg version="1.0" xmlns="http://www.w3.org/2000/svg"
 width="300.000000pt" height="301.000000pt" viewBox="0 0 300.000000 301.000000"
 preserveAspectRatio="xMidYMid meet">
<metadata>
Created by potrace 1.10, written by Peter Selinger 2001-2011
</metadata>
<g transform="translate(0.000000,301.000000) scale(0.100000,-0.100000)"
fill="#000000" stroke="none">
<path d="M1350 3000 c-697 -59 -1274 -637 -1341 -1345 -40 -423 92 -833 368
-1147 315 -358 785 -543 1263 -498 197 19 369 68 540 156 458 235 763 683 811
1189 36 390 -68 756 -304 1068 -217 287 -573 504 -919 560 -120 20 -298 27
-418 17z m183 -39 c-4 -15 -15 -19 -63 -20 -50 -1 -61 2 -70 19 -10 19 -8 20
64 20 67 0 74 -2 69 -19z m127 9 l35 -1 -23 -19 c-19 -15 -33 -18 -75 -13 -62
7 -59 6 -51 28 6 14 14 16 43 11 20 -3 52 -6 71 -6z m-276 -15 c3 -9 0 -17 -7
-20 -39 -12 -86 -12 -112 -1 l-30 13 25 6 c86 21 116 21 124 2z m491 -11 c22
-6 32 -12 22 -13 -21 -1 -127 28 -127 34 0 6 56 -5 105 -21z m-80 -5 l50 -13
-44 -13 c-34 -10 -53 -10 -87 -1 l-45 12 23 18 c13 10 30 15 38 13 8 -2 38
-10 65 -16z m-684 -15 c-29 -13 -68 -24 -85 -23 -25 1 -18 6 39 24 91 31 115
30 46 -1z m134 2 l30 -13 -39 -17 c-25 -10 -52 -14 -75 -10 -65 10 -68 16 -16
34 61 22 62 22 100 6z m271 -18 c-3 -13 -6 -29 -6 -35 0 -7 -11 -13 -25 -13
-17 0 -29 9 -40 30 -8 16 -15 31 -15 35 0 3 21 5 46 5 43 0 46 -2 40 -22z
m111 8 c1 -1 -12 -16 -28 -34 -44 -49 -86 -28 -63 31 4 11 16 14 47 10 23 -3
43 -6 44 -7z m-202 -26 c20 -38 19 -40 -7 -40 -13 0 -40 14 -61 29 -37 28 -37
30 -15 34 55 10 67 7 83 -23z m625 -11 l65 -29 -50 6 c-46 6 -145 47 -145 60
0 11 65 -8 130 -37z m-352 25 c12 -4 22 -9 22 -13 0 -9 -86 -51 -105 -51 -20
0 -19 6 6 41 21 29 35 34 77 23z m235 -16 l52 -23 -65 -5 c-88 -7 -179 31
-102 43 54 8 64 7 115 -15z m-592 -18 c56 -40 31 -49 -52 -19 l-63 23 30 13
c40 17 39 17 85 -17z m-367 -18 c-22 -16 -58 -32 -81 -35 -23 -4 -50 -10 -60
-13 -16 -5 -16 -4 2 11 33 28 118 65 149 65 l29 0 -39 -28z m179 19 c16 -6 14
-9 -15 -25 -24 -13 -50 -17 -98 -14 l-65 3 35 22 c35 23 104 30 143 14z m642
-5 l30 -13 -30 -8 c-16 -3 -50 -13 -74 -21 -27 -8 -49 -10 -59 -5 -12 7 -5 14
34 34 57 30 59 30 99 13z m-530 -25 c48 -17 61 -38 20 -34 -77 8 -135 17 -135
21 0 9 35 31 50 31 8 0 38 -8 65 -18z m781 -25 l39 -33 -80 5 c-64 4 -85 9
-108 28 l-27 23 42 4 c24 2 55 4 69 5 17 1 39 -10 65 -32z m-578 -16 l14 -35
-31 29 c-34 33 -40 49 -14 44 9 -2 23 -19 31 -38z m34 4 c-5 -37 -12 -33 -26
14 -6 17 -3 22 11 22 16 0 18 -6 15 -36z m42 11 c-9 -14 -14 -28 -11 -31 3 -3
13 6 22 20 10 15 27 26 39 26 19 0 18 -2 -9 -25 -36 -30 -24 -33 16 -4 16 11
34 17 40 13 18 -11 -39 -36 -89 -39 -40 -3 -43 -1 -38 19 3 11 6 27 6 34 0 6
9 12 20 12 20 0 20 -1 4 -25z m325 4 c13 -11 22 -21 20 -23 -9 -9 -179 -9
-180 -1 0 8 95 39 131 44 3 0 16 -9 29 -20z m255 10 c25 -6 61 -27 87 -51 26
-23 36 -37 24 -33 -11 4 -43 12 -71 20 -29 7 -65 26 -85 44 -38 35 -29 39 45
20z m-1304 -3 c0 -9 -55 -43 -80 -50 -14 -4 -2 6 25 23 55 33 55 33 55 27z
m606 -27 c21 -22 24 -28 10 -23 -13 5 -17 4 -13 -3 4 -7 -14 -5 -43 5 -29 9
-46 20 -41 25 5 5 22 2 41 -8 17 -9 34 -14 37 -11 3 3 -6 11 -20 17 -15 7 -24
16 -21 20 9 15 19 10 50 -22z m-351 -13 c-13 -19 -27 -24 -83 -30 -37 -3 -78
-9 -92 -12 -24 -6 -23 -5 9 30 34 35 37 36 108 36 l73 0 -15 -24z m139 13 c42
-6 73 -15 70 -20 -7 -11 -194 -12 -194 -1 0 12 23 32 37 32 7 0 46 -5 87 -11z
m-318 -14 c-9 -9 -21 -24 -28 -33 -13 -17 -168 -74 -168 -62 0 3 18 23 39 44
37 36 102 63 154 65 17 1 17 -1 3 -14z m783 -5 c-18 -10 -96 -24 -88 -16 11
11 84 33 93 28 5 -2 2 -8 -5 -12z m679 -67 l37 -33 -54 25 c-30 13 -71 40 -90
61 l-36 37 53 -29 c29 -15 70 -43 90 -61z m-958 47 c10 -6 2 -10 -25 -15 -22
-3 -52 -9 -67 -11 -17 -3 -28 -1 -28 5 0 6 23 12 53 13 50 1 50 2 10 5 -24 2
-43 9 -43 14 0 12 74 3 100 -11z m529 -10 c15 -22 15 -24 -1 -17 -10 3 -58 9
-108 13 -134 10 -109 33 34 30 51 -1 61 -4 75 -26z m166 10 c11 -5 29 -23 39
-40 l19 -33 -24 6 c-13 4 -56 14 -96 23 -55 12 -76 22 -88 40 l-16 24 73 -6
c40 -4 82 -10 93 -14z m-380 0 c4 -6 -13 -11 -42 -12 l-48 -1 45 -4 c25 -3 49
-8 55 -14 15 -15 -70 -11 -100 5 l-28 15 24 5 c13 3 35 7 49 9 14 3 28 5 32 6
4 0 10 -3 13 -9z m-1019 -52 c-29 -33 -143 -108 -165 -108 -13 0 89 95 129
121 64 41 77 36 36 -13z m345 16 c-6 -23 -17 -29 -81 -46 -40 -10 -82 -24 -92
-29 -27 -15 -32 -6 -18 35 7 22 18 36 28 37 9 0 49 7 87 14 39 7 73 14 77 14
3 1 3 -11 -1 -25z m224 16 c-3 -5 -18 -10 -33 -10 -15 -1 -61 -7 -102 -14 -41
-8 -76 -12 -78 -11 -2 2 1 13 8 24 10 19 20 21 111 21 64 0 98 -4 94 -10z
m305 -10 c0 -11 -28 -17 -82 -16 -48 2 -64 8 -55 23 6 10 137 4 137 -7z m654
0 c58 -18 68 -25 91 -64 32 -55 32 -60 -7 -40 -18 9 -55 24 -82 34 -35 11 -56
26 -67 46 -31 52 -29 53 65 24z m-849 -9 c-35 -14 -105 -22 -105 -12 0 9 35
15 105 19 20 1 20 1 0 -7z m566 -7 c5 -3 9 -16 9 -30 0 -20 -3 -23 -17 -15
-10 5 -57 17 -105 27 -49 10 -88 22 -88 28 0 9 185 0 201 -10z m-681 -8 c0 -8
-15 -17 -36 -21 -20 -3 -67 -17 -105 -30 l-69 -23 0 27 c0 30 -14 26 203 60 4
0 7 -5 7 -13z m443 -2 c9 -3 17 -10 17 -15 0 -6 -8 -8 -19 -4 -10 3 -38 12
-62 20 l-44 14 45 -5 c25 -3 53 -8 63 -10z m-876 -32 c-10 -36 -16 -41 -99
-80 -50 -23 -88 -35 -88 -29 0 7 9 31 19 53 17 38 25 44 92 67 41 14 77 26 80
26 3 1 2 -16 -4 -37z m577 32 c12 -5 5 -13 -29 -35 -47 -30 -65 -35 -65 -20 0
5 20 17 45 27 25 9 43 19 40 22 -2 3 -25 -3 -50 -12 -25 -10 -50 -14 -57 -9
-8 5 5 12 37 19 64 15 61 15 79 8z m664 -16 c48 -11 88 -22 89 -22 1 -1 5 -21
9 -45 7 -43 7 -43 -17 -31 -13 7 -57 25 -98 40 -62 23 -77 32 -82 54 -9 31
-10 31 99 4z m-404 -4 c30 -11 44 -20 38 -26 -6 -6 -27 0 -58 16 -57 29 -48
33 20 10z m194 -14 c86 -21 92 -24 86 -44 -10 -31 -9 -31 -73 -2 -32 14 -61
26 -64 26 -18 0 -77 32 -72 40 3 5 11 7 18 5 7 -2 54 -13 105 -25z m611 -74
c58 -85 56 -87 -27 -37 -62 36 -82 54 -97 86 -10 22 -21 44 -23 49 -3 5 23 -6
58 -25 40 -21 71 -47 89 -73z m-1063 55 c-22 -22 -45 -37 -52 -34 -8 3 -14 7
-14 9 0 5 91 64 99 64 3 0 -12 -18 -33 -39z m80 15 c-3 -12 -6 -33 -6 -48 0
-21 -5 -28 -20 -28 -23 0 -24 6 -5 40 26 45 15 56 -11 13 -14 -24 -32 -43 -40
-43 -22 0 -17 11 21 50 40 41 70 49 61 16z m38 -43 c7 -29 5 -33 -14 -33 -16
0 -20 4 -16 16 3 9 6 32 7 52 0 29 2 33 8 17 5 -11 12 -35 15 -52z m106 43
c44 -23 43 -23 35 -35 -4 -7 -21 1 -46 21 -21 17 -42 29 -45 26 -3 -4 8 -16
25 -29 33 -24 40 -39 17 -39 -7 0 -26 16 -41 36 -15 19 -29 33 -32 30 -3 -3 6
-21 21 -41 15 -19 25 -35 22 -35 -2 0 -11 -3 -19 -6 -11 -4 -19 8 -31 42 -9
26 -16 48 -16 49 0 10 83 -5 110 -19z m-596 -18 c4 -20 3 -28 -7 -28 -7 0 -51
-18 -97 -40 -89 -44 -100 -42 -100 12 0 29 -6 26 185 82 12 4 11 6 19 -26z
m240 23 c3 -5 -38 -30 -91 -55 -91 -44 -98 -46 -110 -30 -7 10 -13 21 -13 25
0 6 173 67 197 68 6 1 14 -3 17 -8z m550 -47 c50 -20 93 -38 95 -41 3 -2 -5
-13 -17 -26 -19 -18 -25 -20 -40 -10 -9 7 -47 31 -84 54 -37 23 -65 45 -62 50
7 13 7 13 108 -27z m493 -21 c33 -16 39 -24 47 -66 9 -51 4 -66 -16 -49 -7 5
-46 28 -87 50 -71 39 -74 41 -77 81 l-4 41 49 -20 c27 -10 66 -27 88 -37z
m-1024 14 c-10 -6 -46 -32 -81 -60 l-63 -50 -25 24 -25 23 93 47 c69 35 96 44
106 36 11 -8 10 -12 -5 -20z m-774 -10 c-12 -18 -41 -46 -63 -62 -37 -26 -36
-23 19 33 33 34 61 62 62 62 2 0 -7 -15 -18 -33z m111 -17 c-15 -45 -25 -56
-91 -99 -41 -27 -75 -48 -77 -46 -2 2 7 29 20 60 21 52 29 61 88 96 36 20 68
38 71 38 3 1 -2 -22 -11 -49z m1437 14 c51 -19 95 -38 97 -42 2 -4 -3 -24 -11
-44 l-15 -38 -27 18 c-19 14 -133 77 -159 88 -6 3 10 54 17 54 3 0 48 -16 98
-36z m-287 -25 c44 -28 80 -54 80 -58 0 -4 -13 -14 -28 -23 l-28 -17 -68 68
c-59 59 -71 81 -45 81 5 0 44 -23 89 -51z m-430 25 c0 -2 -25 -35 -56 -73
l-57 -69 -33 16 c-19 9 -34 18 -34 21 1 13 155 118 167 114 7 -3 13 -7 13 -9z
m-531 -77 c-50 -34 -173 -107 -176 -104 -2 2 -6 26 -9 54 l-6 49 88 41 89 42
9 -40 c5 -22 7 -41 5 -42z m239 55 c7 -15 8 -28 3 -30 -5 -2 -41 -25 -79 -52
-39 -26 -76 -51 -81 -55 -10 -5 -51 49 -51 68 0 7 174 95 190 96 3 1 11 -11
18 -27z m666 -45 l69 -63 -44 -17 c-24 -10 -45 -13 -47 -8 -2 5 -21 38 -42 74
-22 36 -40 68 -40 71 0 21 45 -4 104 -57z m881 -47 c62 -86 62 -97 -1 -45 -39
31 -68 66 -87 102 l-28 54 42 -33 c22 -18 56 -53 74 -78z m-1198 88 c-11 -27
-61 -143 -63 -146 -3 -5 -84 20 -84 26 0 2 24 33 53 68 36 43 59 63 76 63 15
1 21 -4 18 -11z m238 -67 c29 -46 40 -73 32 -76 -7 -2 -28 -6 -48 -9 l-36 -6
-13 57 c-6 32 -14 68 -17 80 -4 15 0 22 14 25 23 5 17 12 68 -71z m-175 45 c0
-12 -3 -50 -6 -82 l-6 -60 -47 6 c-25 3 -45 10 -44 15 1 6 15 40 32 78 23 51
35 67 51 67 14 0 20 -7 20 -24z m88 -57 l19 -77 -46 -5 c-25 -3 -48 -4 -50 -2
-2 2 0 38 4 79 6 66 9 75 28 78 12 2 23 4 24 3 1 0 10 -34 21 -76z m473 25
c46 -25 87 -49 91 -52 3 -4 -8 -24 -25 -44 l-32 -38 -82 67 c-81 65 -82 66
-65 89 9 13 20 24 23 24 4 0 44 -21 90 -46z m419 9 c73 -43 86 -61 94 -130 6
-50 -3 -69 -20 -42 -3 6 -35 32 -71 58 -64 47 -65 49 -69 100 -2 28 -2 51 0
51 3 0 32 -17 66 -37z m-99 -66 c15 -9 16 -15 4 -55 -8 -25 -18 -49 -23 -54
-6 -6 -31 7 -66 36 -31 25 -70 53 -86 61 -29 15 -30 16 -15 45 8 16 15 36 15
45 0 13 16 8 78 -26 42 -23 84 -47 93 -52z m-1884 46 c-8 -16 -17 -41 -21 -58
-4 -19 -32 -53 -72 -91 -56 -52 -64 -57 -59 -35 18 69 48 120 102 164 30 26
57 47 59 47 3 0 -2 -12 -9 -27z m642 6 l29 -21 -76 -73 -76 -73 -38 32 c-21
17 -38 34 -38 38 0 6 159 118 168 118 1 0 16 -9 31 -21z m-491 -47 c1 -20 3
-44 5 -53 2 -14 -150 -146 -158 -137 -1 2 -6 30 -10 64 l-7 60 74 52 c40 28
78 51 83 52 6 0 11 -17 13 -38z m241 -14 c13 -21 18 -38 13 -38 -5 0 -43 -29
-85 -65 l-77 -66 -30 48 c-17 26 -30 50 -30 54 0 12 174 119 181 111 3 -4 16
-24 28 -44z m1104 -9 c42 -33 77 -64 77 -68 0 -9 -75 -61 -88 -61 -4 0 -35 33
-69 74 l-61 73 26 21 c15 12 29 21 32 21 3 1 40 -26 83 -60z m-769 15 l34 -17
-43 -61 c-24 -34 -50 -70 -58 -80 -13 -19 -15 -18 -73 8 l-59 27 75 69 c41 38
78 69 82 70 4 0 23 -7 42 -16z m674 -81 l64 -77 -44 -16 c-92 -36 -83 -40
-128 50 -23 45 -40 83 -38 85 4 4 72 33 78 34 3 0 34 -34 68 -76z m390 -6 c28
-22 52 -44 52 -51 0 -6 -18 -31 -40 -56 l-39 -45 -77 76 -77 77 34 40 33 40
31 -21 c16 -12 54 -39 83 -60z m364 30 c51 -46 59 -58 68 -106 20 -108 18
-109 -59 -34 -68 68 -68 69 -73 131 -2 34 -2 62 1 62 3 -1 32 -24 63 -53z
m-1332 19 c25 -8 44 -18 43 -22 -4 -14 -56 -159 -59 -162 -4 -6 -134 32 -134
39 0 5 101 160 104 159 1 0 21 -7 46 -14z m1175 -39 c38 -29 71 -59 73 -68 2
-9 -7 -41 -18 -73 l-22 -56 -77 72 -77 73 19 52 c11 29 23 53 26 53 3 0 37
-24 76 -53z m-725 -47 c22 -44 40 -82 40 -84 0 -6 -95 -26 -124 -26 -20 0 -24
8 -35 68 -7 37 -15 77 -17 89 -5 19 -1 22 33 26 21 2 44 4 50 5 7 1 31 -34 53
-78z m1006 -25 c16 -25 16 -28 2 -17 -21 17 -78 101 -78 115 0 10 39 -41 76
-98z m-1813 59 l37 -35 -66 -79 c-38 -45 -72 -77 -78 -73 -27 16 -96 76 -96
84 0 14 144 139 159 139 3 0 23 -16 44 -36z m523 22 c1 -1 -1 -41 -4 -90 l-5
-88 -76 7 c-42 4 -77 8 -79 9 -1 2 12 41 30 89 l32 86 51 -6 c27 -3 51 -6 51
-7z m130 -23 c3 -16 10 -44 14 -63 4 -19 11 -47 14 -62 l6 -28 -78 0 -79 0 4
78 c3 42 6 83 8 90 3 7 23 12 54 12 47 0 51 -2 57 -27z m-1281 -24 c-8 -23
-15 -49 -15 -59 0 -9 -12 -27 -26 -41 -14 -13 -35 -39 -47 -58 -32 -53 -32
-21 1 51 27 57 86 148 97 148 2 0 -2 -19 -10 -41z m137 -9 c1 -27 2 -58 2 -68
1 -18 -120 -159 -129 -151 -2 3 -7 35 -11 73 l-7 68 64 64 c35 35 67 64 71 64
4 0 9 -22 10 -50z m198 32 c0 -5 13 -29 29 -53 l30 -44 -68 -70 c-38 -38 -72
-72 -77 -74 -10 -5 -74 96 -74 116 0 12 137 133 152 133 4 0 8 -4 8 -8z m1570
-154 c0 -9 -118 -88 -129 -88 -6 1 -112 154 -119 172 -2 4 2 8 10 8 7 0 31 14
53 30 l39 30 73 -72 c40 -40 73 -76 73 -80z m-1159 79 l57 -27 -49 -83 c-27
-45 -50 -86 -52 -91 -1 -4 -38 9 -81 31 l-79 40 69 81 c38 44 71 80 74 78 3
-1 30 -14 61 -29z m1428 -124 c1 -15 -89 -125 -100 -121 -4 2 -37 39 -72 83
l-64 80 46 52 46 52 71 -67 c39 -37 72 -72 73 -79z m316 30 c9 -18 18 -63 21
-100 6 -67 6 -68 -11 -43 -10 14 -36 48 -57 77 -26 35 -38 58 -34 71 3 10 2
40 -3 68 l-9 49 39 -45 c21 -25 46 -60 54 -77z m-108 -55 c-6 -42 -37 -128
-46 -127 -3 0 -34 36 -68 79 l-62 78 19 49 c10 26 22 57 25 67 5 17 15 11 71
-45 61 -60 65 -66 61 -101z m-684 59 c53 -75 56 -83 40 -94 -20 -15 -151 -59
-156 -52 -4 6 -68 162 -70 172 -2 7 102 54 123 56 3 0 31 -36 63 -82z m-1235
4 l53 -49 -58 -85 c-32 -48 -60 -86 -64 -87 -3 0 -35 25 -72 56 l-68 55 72 80
c40 43 75 79 78 79 3 -1 30 -23 59 -49z m447 25 c28 -7 49 -17 47 -22 -1 -5
-14 -48 -29 -96 -30 -100 -16 -95 -144 -54 l-67 21 50 88 c43 77 53 88 72 83
11 -4 44 -12 71 -20z m-930 -6 c-3 -5 -1 -38 5 -73 l11 -63 -53 -78 c-51 -76
-53 -77 -59 -49 -4 15 -7 54 -8 87 -1 54 2 62 46 122 26 35 51 64 56 64 4 0 6
-4 2 -10z m218 -70 l33 -55 -59 -80 c-33 -44 -61 -82 -63 -84 -6 -6 -84 124
-84 141 0 26 123 159 133 145 4 -7 22 -37 40 -67z m1331 -19 c20 -46 33 -87
29 -91 -4 -4 -37 -13 -73 -19 -36 -6 -77 -14 -91 -17 -25 -5 -26 -3 -37 73 -7
43 -15 88 -18 101 -6 19 -2 22 22 23 16 0 49 6 74 13 25 7 48 10 51 7 4 -3 23
-44 43 -90z m-450 63 l59 -7 -8 -96 c-3 -53 -7 -97 -8 -97 -3 -3 -192 19 -196
22 -2 2 9 47 25 99 25 85 31 95 49 91 11 -2 46 -8 79 -12z m256 -97 l17 -95
-51 -6 c-28 -3 -75 -6 -103 -6 -61 0 -58 -8 -47 123 l7 76 76 3 c42 2 78 2 80
1 2 -1 11 -45 21 -96z m662 6 l62 -76 -30 -24 c-34 -28 -134 -87 -138 -82 -28
35 -105 184 -96 187 6 2 36 21 68 42 31 21 60 36 64 34 4 -3 35 -39 70 -81z
m-2130 30 c-5 -29 -42 -96 -48 -90 -5 4 43 117 49 117 3 0 2 -12 -1 -27z
m2404 -74 l56 -69 -35 -47 c-19 -27 -49 -61 -65 -77 l-30 -28 -18 33 c-9 19
-35 60 -56 92 l-40 58 51 54 c28 30 51 59 51 66 0 17 20 -2 86 -82z m-1667 46
c37 -19 73 -35 79 -35 6 0 -8 -41 -33 -90 -24 -50 -45 -95 -47 -101 -2 -7 -42
8 -97 35 -69 35 -91 51 -87 62 6 15 109 163 113 164 2 0 34 -16 72 -35z m1864
-42 l47 -70 -15 -50 c-8 -28 -22 -68 -31 -89 l-16 -37 -29 53 c-16 29 -40 68
-54 86 -24 31 -24 36 -11 56 8 13 22 47 31 75 10 29 20 51 24 49 3 -2 28 -35
54 -73z m117 -62 c11 -35 20 -82 20 -105 l0 -41 -35 70 c-27 55 -36 85 -39
140 l-4 69 19 -34 c10 -19 28 -64 39 -99z m-762 -2 c30 -50 52 -92 50 -94 -6
-5 -197 -75 -205 -75 -6 1 -37 81 -69 181 -5 13 8 21 58 38 34 12 70 26 78 31
8 5 20 10 25 10 6 0 34 -41 63 -91z m-1455 -25 c15 -9 12 -19 -36 -105 l-53
-96 -44 34 c-57 44 -110 94 -110 106 0 9 31 53 89 125 l34 42 51 -48 c28 -27
59 -53 69 -58z m-530 -150 c-36 -75 -38 -78 -44 -49 -4 17 -7 58 -8 92 -1 52
5 74 31 128 l33 65 13 -78 13 -79 -38 -79z m177 223 c0 -8 18 -42 40 -76 l40
-61 -48 -85 c-26 -46 -49 -85 -52 -85 -8 0 -68 101 -82 138 -11 28 -8 35 38
106 48 74 64 90 64 63z m860 -37 c11 0 20 -3 20 -7 -1 -15 -48 -195 -53 -200
-5 -5 -123 26 -188 49 l-37 13 45 96 45 96 74 -23 c41 -13 84 -24 94 -24z
m736 -89 c19 -52 32 -96 30 -98 -12 -12 -235 -50 -236 -40 -5 23 -29 185 -30
195 0 7 14 12 38 13 20 0 60 7 87 14 28 7 56 12 64 11 7 0 28 -42 47 -95z
m572 -95 c-2 -1 -19 -14 -39 -28 -43 -32 -137 -88 -147 -88 -4 0 -27 44 -52
97 -32 70 -41 98 -31 101 7 2 45 26 84 52 l72 48 58 -90 c32 -49 57 -91 55
-92z m-1139 157 l83 -6 -6 -45 c-3 -25 -6 -71 -6 -103 l0 -59 -37 0 c-65 0
-213 22 -213 32 0 6 7 33 14 61 8 29 20 72 26 95 10 38 14 43 33 38 12 -4 60
-9 106 -13z m316 -36 c14 -87 25 -170 23 -172 -2 -1 -58 -5 -125 -9 l-123 -7
0 73 c0 40 3 89 6 108 l6 35 104 2 103 2 6 -32z m1033 -62 l51 -84 -21 -28
c-12 -15 -44 -51 -71 -80 l-50 -51 -47 91 -47 92 54 55 c29 30 56 62 59 72 3
10 9 18 13 18 5 0 31 -38 59 -85z m198 -120 c-7 -27 -22 -69 -32 -93 l-19 -43
-37 89 -38 88 19 40 c10 21 25 59 31 84 l13 45 38 -80 c38 -79 39 -81 25 -130z
m-2139 156 c27 -15 69 -37 96 -47 26 -10 45 -23 42 -29 -2 -5 -21 -51 -41
-101 l-37 -92 -53 24 c-29 13 -78 38 -109 55 l-56 31 42 77 c46 83 63 111 66
111 2 0 24 -13 50 -29z m-215 -138 l36 -24 -39 -84 c-21 -45 -39 -88 -39 -94
0 -17 -14 -13 -46 11 -41 31 -134 121 -134 130 0 5 21 46 47 92 l48 83 45 -45
c25 -24 61 -55 82 -69z m1694 11 c24 -53 43 -98 42 -99 -6 -6 -86 -38 -148
-60 -36 -13 -72 -26 -81 -30 -13 -5 -18 1 -23 28 -3 18 -17 66 -30 105 l-23
71 76 26 c42 14 87 32 101 40 14 8 29 14 33 15 5 0 28 -43 53 -96z m718 -3 c9
-46 15 -86 12 -88 -8 -9 -46 123 -43 154 3 48 13 28 31 -66z m-2687 -40 c24
-31 25 -37 13 -65 -7 -17 -22 -57 -34 -88 -11 -32 -24 -58 -27 -58 -16 0 -99
147 -99 175 0 9 16 51 36 93 l35 77 25 -50 c14 -27 37 -65 51 -84z m-179 12
c7 -34 5 -57 -13 -119 -12 -42 -25 -72 -29 -65 -12 19 -9 152 5 221 14 71 12
73 37 -37z m1022 27 c11 0 23 -6 26 -13 4 -12 -32 -196 -40 -205 -7 -6 -244
63 -255 74 -2 2 13 48 34 102 l39 99 88 -29 c48 -15 97 -28 108 -28z m879 -93
c16 -53 26 -99 23 -101 -7 -4 -185 -39 -244 -49 -30 -5 -30 -6 -43 108 -3 28
-8 62 -11 76 -5 25 -3 27 48 33 29 4 85 15 123 24 39 10 71 15 72 12 2 -3 16
-49 32 -103z m556 23 c25 -49 45 -91 45 -94 0 -12 -208 -143 -214 -134 -1 2
-13 35 -25 73 -13 39 -30 81 -36 95 -12 23 -10 26 52 62 36 21 78 49 95 63 16
14 31 25 34 25 2 0 24 -40 49 -90z m-1280 40 c39 -5 90 -10 114 -10 40 0 43
-2 37 -22 -3 -13 -6 -63 -6 -111 l0 -88 -42 5 c-24 3 -89 10 -145 17 -57 6
-103 15 -103 20 0 4 10 54 21 109 18 82 25 100 38 95 9 -2 48 -9 86 -15z
m1535 -72 l33 -77 -26 -38 c-14 -21 -49 -60 -76 -87 -44 -44 -51 -47 -56 -30
-4 10 -19 51 -34 91 l-28 72 44 43 c24 23 55 60 70 81 14 21 29 34 33 30 4 -4
22 -43 40 -85z m145 9 c20 -81 15 -126 -27 -217 l-20 -45 -14 60 c-8 33 -19
71 -24 85 -8 20 -5 35 15 74 13 27 27 64 31 82 3 19 9 34 13 34 4 0 16 -33 26
-73z m-1237 -52 c6 -54 10 -101 8 -103 -2 -2 -70 -6 -152 -9 -137 -6 -147 -5
-141 11 4 10 7 60 7 112 l0 93 128 3 c70 2 130 1 133 -2 3 -3 11 -50 17 -105z
m-951 13 c45 -19 53 -25 48 -43 -42 -152 -54 -180 -71 -177 -22 4 -181 84
-208 104 -18 14 -17 18 23 110 l42 96 56 -34 c30 -18 80 -43 110 -56z m-297
-95 l26 -15 -31 -91 c-16 -51 -31 -94 -32 -96 -9 -15 -183 142 -183 165 0 8
14 50 32 93 l32 79 65 -60 c36 -33 77 -66 91 -75z m-267 -20 c20 -23 20 -23 2
-100 -27 -113 -27 -113 -69 -45 -66 109 -68 117 -44 211 l21 82 34 -63 c19
-35 44 -73 56 -85z m2132 38 c19 -51 35 -95 35 -97 0 -15 -256 -112 -266 -101
-3 2 -14 42 -25 88 -11 46 -22 91 -25 100 -4 13 6 20 43 29 26 6 82 26 123 44
41 18 76 32 77 31 1 0 18 -43 38 -94z m-1325 -6 c52 -13 94 -27 94 -32 -17
-101 -37 -203 -41 -203 -33 0 -283 78 -283 89 0 4 14 50 30 104 l31 97 37 -16
c20 -8 80 -26 132 -39z m-964 -119 l-10 -71 -7 50 c-4 28 -5 79 -1 115 l6 65
11 -44 c7 -31 8 -66 1 -115z m2603 46 l30 -81 -47 -34 c-49 -36 -179 -117
-187 -117 -3 0 -5 8 -5 19 0 10 -11 55 -24 100 l-23 81 56 30 c31 17 79 47
106 68 57 44 52 48 94 -66z m-596 -4 c10 -46 21 -93 24 -105 4 -18 -1 -23 -34
-32 -33 -10 -148 -32 -239 -46 l-32 -5 -6 77 c-4 43 -9 92 -12 109 l-6 31 59
7 c32 4 92 15 133 25 41 10 80 19 85 20 6 1 18 -36 28 -81z m821 6 c21 -80 20
-94 -8 -133 -36 -48 -116 -131 -127 -131 -5 0 -9 10 -9 22 0 12 -7 50 -16 85
l-16 64 59 62 c33 34 65 73 72 86 16 30 24 20 45 -55z m113 -38 c-3 -59 -12
-111 -27 -149 -12 -32 -23 -57 -25 -55 -2 2 -8 35 -13 75 -9 66 -8 75 14 118
13 26 26 63 30 81 3 19 11 31 16 28 7 -4 9 -41 5 -98z m-1752 64 c44 -5 103
-11 130 -13 33 -1 50 -6 49 -14 -1 -7 -2 -56 -2 -108 l-2 -95 -34 0 c-37 0
-279 30 -284 35 -2 2 4 51 14 109 14 88 20 106 33 102 9 -3 52 -10 96 -16z
m-595 -63 l116 -58 -24 -97 c-14 -53 -26 -98 -27 -100 -4 -4 -215 102 -238
120 -17 13 -17 17 9 98 29 94 33 103 42 98 4 -2 59 -30 122 -61z m1094 36 c2
-10 8 -57 11 -104 l7 -86 -32 -7 c-18 -3 -90 -6 -161 -6 l-129 0 0 105 0 104
103 4 c56 1 123 4 149 5 37 2 48 -2 52 -15z m-1640 -67 c14 -29 39 -69 54 -88
27 -35 28 -36 18 -117 -10 -82 -10 -82 -28 -59 -10 13 -34 55 -53 93 -34 68
-35 73 -29 148 4 42 8 77 9 77 2 0 15 -24 29 -54z m187 18 c25 -26 134 -115
145 -119 3 0 -35 -177 -39 -181 -6 -7 -94 65 -148 120 l-46 46 20 85 c12 47
24 85 27 85 3 0 22 -16 41 -36z m2123 -89 c14 -52 26 -97 26 -99 0 -8 -87 -45
-192 -81 l-97 -34 -7 37 c-3 20 -12 67 -18 103 l-12 66 80 27 c45 14 104 37
131 50 28 14 53 25 56 25 4 1 18 -42 33 -94z m-1461 -14 c40 -11 84 -22 98
-25 l25 -5 -12 -88 c-7 -48 -13 -95 -13 -104 -1 -16 -8 -15 -78 2 -43 11 -113
31 -157 46 l-78 25 6 32 c3 17 13 63 22 102 l15 72 50 -19 c28 -11 83 -28 122
-38z m1761 -40 c9 -40 16 -79 16 -86 0 -15 -97 -87 -180 -133 l-56 -32 -12 78
c-6 42 -14 86 -17 97 -5 17 5 26 57 52 35 18 86 50 113 72 28 21 53 35 56 32
4 -3 14 -39 23 -80z m205 -43 c1 -50 -3 -62 -35 -105 -42 -55 -105 -123 -115
-123 -4 0 -9 37 -11 83 l-4 82 56 60 c31 33 65 73 76 90 l19 29 6 -29 c4 -17
7 -56 8 -87z m-804 -19 c9 -55 16 -101 14 -103 -14 -9 -319 -68 -326 -62 -5 4
-20 202 -16 209 2 4 21 7 41 8 20 0 84 11 142 23 58 13 110 24 116 25 6 0 18
-41 29 -100z m-1603 39 c29 -17 85 -45 124 -62 38 -17 71 -34 73 -39 1 -4 -3
-48 -10 -97 -14 -107 -1 -105 -164 -21 l-110 58 1 36 c1 38 24 157 30 157 2 0
27 -14 56 -32z m678 13 c36 -5 103 -13 149 -17 l83 -7 -6 -51 c-3 -28 -6 -75
-6 -105 l0 -53 -82 7 c-106 9 -246 30 -254 37 -3 4 0 52 7 107 10 85 15 101
28 97 9 -3 45 -10 81 -15z m1785 -87 c-9 -42 -23 -90 -31 -108 -13 -29 -13
-27 -8 39 6 64 44 179 52 155 2 -6 -4 -45 -13 -86z m-2625 -54 l45 -31 -4 -87
c-1 -48 -5 -89 -7 -91 -4 -4 -94 68 -151 123 -41 38 -43 43 -43 97 0 31 3 71
6 89 l7 32 51 -50 c28 -27 71 -64 96 -82z m1424 28 c3 -55 4 -103 1 -106 -3
-3 -82 -8 -176 -10 l-170 -5 2 106 2 106 141 4 c78 1 153 4 167 5 l26 2 7
-102z m-1623 -50 c10 -13 19 -54 23 -98 l6 -75 -20 25 c-32 42 -77 143 -84
190 -4 25 -9 59 -12 75 -5 24 2 18 33 -32 21 -33 45 -72 54 -85z m2308 25 c7
-43 14 -85 17 -94 3 -12 -12 -23 -58 -44 -61 -26 -225 -85 -238 -85 -4 0 -10
35 -14 78 -3 42 -9 86 -12 97 -4 17 5 23 73 43 43 13 105 36 138 52 33 16 65
29 71 29 6 1 16 -32 23 -76z m285 -55 l7 -83 -37 -31 c-20 -17 -74 -54 -119
-82 l-83 -51 -7 90 c-4 50 -6 91 -4 93 2 1 33 19 69 38 36 20 85 52 110 72 25
19 48 35 51 35 3 1 9 -36 13 -81z m-1910 43 c50 -16 119 -35 153 -42 l62 -13
-4 -40 c-3 -23 -7 -67 -10 -98 -4 -39 -11 -58 -20 -58 -19 0 -245 66 -281 82
l-30 13 14 93 c8 50 17 92 20 92 3 0 46 -13 96 -29z m2082 -42 c-3 -39 -11
-80 -17 -90 -15 -28 -128 -159 -138 -159 -4 0 -4 28 0 62 4 35 5 66 2 71 -2 4
29 44 71 87 42 44 76 84 76 90 0 5 3 10 6 10 4 0 4 -32 0 -71z m-772 -61 c4
-46 9 -91 12 -100 4 -13 -11 -20 -88 -38 -51 -11 -130 -27 -175 -34 l-83 -13
0 36 c0 20 -3 66 -6 102 l-7 66 69 8 c38 4 112 17 164 30 52 12 98 23 101 24
4 0 9 -36 13 -81z m-1589 -8 l130 -65 -4 -85 c-1 -47 -5 -87 -7 -90 -3 -2 -66
27 -141 65 l-135 69 6 50 c3 28 6 68 6 89 0 21 3 37 8 35 4 -2 65 -32 137 -68z
m-196 -94 c27 -14 29 -19 30 -87 1 -39 4 -75 7 -80 12 -20 -12 -6 -70 40 -116
93 -125 106 -133 196 l-6 80 71 -67 c39 -37 85 -74 101 -82z m804 130 c50 -8
127 -17 170 -21 l77 -7 0 -99 0 -100 -72 6 c-81 7 -280 34 -285 38 -4 5 9 197
14 197 2 0 45 -6 96 -14z m621 -53 c3 -21 6 -65 6 -99 l0 -61 -67 -6 c-38 -4
-119 -7 -180 -7 l-113 0 0 100 0 99 138 4 c75 1 153 4 173 5 35 2 37 0 43 -35z
m-1633 -45 c19 -29 42 -80 51 -113 16 -59 16 -59 -3 -35 -15 20 -56 109 -86
186 -11 28 4 13 38 -38z m2333 0 c14 -120 13 -122 -56 -153 -63 -28 -222 -85
-238 -85 -5 0 -10 40 -12 89 l-3 88 95 32 c52 17 118 42 145 55 28 14 53 25
56 25 3 1 9 -23 13 -51z m260 -60 c-5 -68 -8 -75 -42 -106 -38 -35 -193 -134
-199 -128 -2 2 -1 39 3 83 l7 79 61 32 c33 18 84 50 111 71 28 22 53 40 58 40
4 1 4 -32 1 -71z m132 -3 c-28 -76 -59 -125 -117 -180 -28 -27 -40 -34 -35
-20 4 11 12 40 17 66 7 34 21 56 56 90 25 24 57 59 71 77 13 17 26 32 28 32 2
0 -7 -29 -20 -65z m-2031 11 c61 -19 127 -37 148 -40 l38 -7 -3 -90 c-2 -72
-6 -89 -18 -89 -18 0 -218 54 -275 74 -25 9 -40 20 -39 30 0 9 1 50 2 92 2 68
4 75 20 69 9 -3 67 -21 127 -39z m-367 -54 c37 -21 97 -52 134 -67 l67 -29 3
-78 c2 -51 -1 -78 -8 -78 -19 0 -231 110 -246 128 -15 16 -35 162 -22 162 3 0
36 -17 72 -38z m1682 -36 c0 -41 3 -81 6 -89 4 -12 -14 -19 -83 -35 -48 -12
-119 -26 -158 -32 -38 -6 -80 -13 -92 -16 -23 -4 -23 -3 -23 89 l0 94 88 12
c48 7 121 21 162 31 41 10 81 18 88 19 8 1 12 -20 12 -73z m-1792 -72 c24 -13
32 -28 40 -68 6 -28 14 -59 17 -68 13 -33 -12 -18 -93 58 -74 68 -83 81 -102
141 -11 36 -20 67 -20 70 0 3 29 -22 64 -55 36 -33 78 -68 94 -78z m842 86
c47 -5 111 -12 143 -15 l57 -6 0 -91 0 -91 -87 7 c-90 7 -274 34 -281 41 -2 2
-1 43 3 90 l8 87 36 -6 c20 -3 74 -10 121 -16z m583 -190 c-2 -2 -86 -6 -186
-8 l-183 -4 0 91 1 91 120 1 c66 1 147 4 180 8 l60 6 6 -90 c4 -49 5 -92 2
-95z m697 143 c0 -16 -3 -52 -7 -82 -6 -53 -6 -54 -58 -76 -59 -26 -222 -85
-236 -85 -5 0 -9 35 -9 78 l0 77 88 28 c48 16 114 41 147 57 75 36 75 36 75 3z
m235 -15 c-2 -7 -11 -39 -20 -70 -15 -57 -16 -58 -122 -128 -58 -38 -108 -69
-109 -67 -2 1 2 32 8 68 l11 66 67 36 c36 20 86 52 110 71 48 38 62 43 55 24z
m-1929 -53 c39 -13 108 -31 152 -41 l82 -19 0 -81 0 -81 -62 14 c-75 17 -251
72 -259 81 -4 4 -9 42 -11 85 -4 69 -3 77 11 72 9 -4 48 -17 87 -30z m1999 -2
c-39 -61 -104 -150 -119 -162 -37 -31 25 76 76 131 60 64 68 70 43 31z m-2222
-89 c52 -24 99 -44 104 -44 9 0 36 -131 28 -139 -6 -5 -158 68 -211 102 -37
23 -43 32 -58 91 -21 83 -21 81 14 56 16 -12 72 -41 123 -66z m-160 -50 c27
-19 84 -124 67 -124 -17 0 -166 157 -189 200 l-24 45 59 -51 c32 -27 71 -59
87 -70z m1749 39 c-2 -43 -7 -81 -10 -85 -7 -6 -218 -50 -300 -62 l-43 -6 3
82 3 82 90 13 c50 7 124 22 165 32 41 10 80 19 85 20 7 1 9 -28 7 -76z m-909
10 l157 -17 0 -79 0 -80 -96 7 c-97 7 -251 29 -258 37 -2 2 -7 40 -11 83 l-8
79 29 -6 c16 -4 100 -14 187 -24z m540 -80 c-3 -43 -7 -80 -9 -82 -6 -7 -271
-18 -314 -12 l-45 6 -1 77 -1 77 151 4 c83 1 168 4 188 5 l36 2 -5 -77z m677
63 c0 -8 -5 -38 -12 -66 -9 -41 -18 -55 -42 -67 -41 -21 -233 -93 -249 -93
-10 0 -11 13 -2 67 l11 66 94 33 c52 17 115 41 140 52 55 25 60 26 60 8z m200
-10 c0 -8 -43 -81 -59 -100 -16 -18 -134 -102 -177 -124 l-22 -11 23 54 c20
51 28 59 106 106 46 27 91 56 99 64 14 14 30 20 30 11z m-1856 -65 c50 -16
119 -35 154 -42 43 -9 62 -18 63 -29 0 -8 4 -39 8 -67 5 -36 4 -53 -3 -53 -20
0 -231 58 -268 74 -32 14 -38 21 -47 66 -13 58 -14 80 -5 80 4 0 48 -13 98
-29z m-203 -71 c45 -22 88 -40 93 -40 6 0 20 -27 32 -59 l20 -59 -25 10 c-14
5 -66 30 -114 56 -90 47 -121 80 -142 151 l-7 24 29 -21 c17 -12 68 -40 114
-62z m1536 -20 c-10 -69 -10 -70 -46 -79 -38 -10 -159 -34 -250 -50 l-53 -9 6
46 c3 24 6 57 6 72 0 26 2 27 68 34 37 3 112 17 167 30 55 13 103 24 106 25 3
0 1 -30 -4 -69z m-1619 -51 c28 -41 5 -27 -49 27 l-54 56 44 -31 c24 -17 51
-40 59 -52z m642 62 c36 -6 104 -13 153 -17 l87 -7 0 -69 0 -70 -67 7 c-70 7
-277 35 -279 38 -1 1 -4 33 -8 70 l-7 69 28 -6 c15 -3 57 -10 93 -15z m1236
-59 c-25 -49 -28 -51 -128 -90 -135 -53 -163 -60 -155 -39 3 9 11 33 16 55 10
37 14 40 73 56 35 10 97 32 138 50 41 18 76 29 78 25 2 -4 -8 -30 -22 -57z
m-619 -18 c-2 -36 -7 -68 -10 -71 -3 -3 -83 -8 -176 -11 l-171 -5 0 71 0 71
153 4 c83 1 165 4 181 5 l29 2 -6 -66z m762 30 c-22 -24 -105 -87 -173 -130
l-29 -18 24 37 c14 22 48 51 84 72 33 19 71 43 85 54 33 26 39 17 9 -15z
m-1650 -49 c69 -19 130 -35 137 -35 12 0 39 -98 30 -107 -7 -7 -286 71 -286
80 0 1 -9 26 -20 56 -20 50 -20 53 -3 48 10 -4 74 -22 142 -42z m-237 -29 c82
-40 114 -62 133 -90 13 -20 22 -36 18 -36 -3 0 -50 23 -104 51 -65 35 -108 64
-129 90 -17 22 -30 39 -28 39 2 0 51 -24 110 -54z m1462 -3 c-20 -85 -22 -86
-140 -110 -60 -12 -130 -25 -155 -29 l-47 -6 9 44 c4 23 8 48 9 54 0 7 27 15
63 19 34 4 105 17 157 30 52 12 98 23 103 24 4 0 4 -11 1 -26z m226 -33 c-11
-16 -32 -38 -46 -49 -25 -20 -152 -72 -206 -86 l-27 -7 19 37 c17 34 27 40
105 66 47 16 103 38 123 49 51 26 57 25 32 -10z m-1115 0 c178 -19 175 -18
175 -44 0 -13 3 -37 6 -53 l6 -29 -82 7 c-45 4 -119 12 -165 19 -79 11 -83 13
-88 40 -4 15 -9 40 -13 55 -7 26 -5 28 22 22 16 -3 79 -11 139 -17z m537 -70
l-7 -45 -152 -9 c-84 -5 -159 -6 -167 -3 -12 5 -16 20 -16 57 l0 50 113 1 c61
1 139 4 172 8 37 4 61 2 63 -4 1 -5 -1 -30 -6 -55z m-771 -15 c74 -16 77 -18
92 -56 l15 -39 -26 6 c-46 11 -186 52 -213 63 -22 8 -69 65 -69 83 0 3 28 -5
63 -17 34 -13 96 -30 138 -40z m1066 -27 l-25 -43 -104 -21 c-56 -12 -119 -24
-139 -27 l-36 -5 9 37 10 38 96 17 c54 8 120 22 147 30 28 7 54 14 59 15 4 0
-3 -18 -17 -41z m-1265 12 c40 -17 81 -50 64 -50 -9 0 -116 61 -116 66 0 7 5
5 52 -16z m1453 0 c-9 -14 -96 -58 -175 -87 l-65 -24 25 24 c14 13 57 34 95
47 39 12 81 28 95 36 31 16 33 17 25 4z m-1000 -30 c39 -5 91 -10 116 -10 l47
0 4 -41 4 -41 -56 6 c-88 10 -235 29 -237 30 -1 1 -10 19 -18 40 l-16 39 43
-7 c24 -4 75 -11 113 -16z m-175 -61 c28 -6 51 -18 58 -30 13 -20 12 -21 -20
-14 -81 18 -190 58 -215 80 l-28 24 80 -25 c44 -14 100 -30 125 -35z m675 24
c-4 -21 -8 -40 -10 -42 -2 -2 -72 -6 -154 -9 l-151 -5 0 41 0 42 43 -5 c33 -4
223 6 271 14 4 0 5 -16 1 -36z m251 -32 c-17 -19 -93 -41 -206 -60 -30 -5 -56
-8 -58 -6 -2 2 1 13 8 24 8 15 21 21 48 22 20 0 71 9 112 19 41 9 84 18 94 19
18 1 18 0 2 -18z m-708 -26 c117 -8 129 -11 135 -36 5 -20 3 -20 -61 -14 -114
11 -186 26 -204 42 -27 24 -22 33 13 23 17 -5 70 -12 117 -15z m433 -24 c-12
-22 -67 -31 -192 -31 -82 0 -89 2 -89 20 0 18 8 20 103 23 56 1 121 4 145 5
39 2 42 0 33 -17z m-106 -51 c-99 -11 -165 -11 -165 -2 0 4 53 8 118 8 104 1
109 0 47 -6z"/>
</g>
</svg>
