<?xml version="1.0" standalone="no"?>
<!DOCTYPE svg PUBLIC "-//W3C//DTD SVG 20010904//EN"
 "http://www.w3.org/TR/2001/REC-SVG-20010904/DTD/svg10.dtd">
<svg version="1.0" xmlns="http://www.w3.org/2000/svg"
 width="300.000000pt" height="300.000000pt" viewBox="0 0 300.000000 300.000000"
 preserveAspectRatio="xMidYMid meet">
<metadata>
Created by potrace 1.10, written by Peter Selinger 2001-2011
</metadata>
<g transform="translate(0.000000,300.000000) scale(0.100000,-0.100000)"
fill="#000000" stroke="none">
<path d="M0 1500 l0 -1500 1500 0 1500 0 0 1500 0 1500 -1500 0 -1500 0 0
-1500z m1915 1064 c26 -12 43 -31 61 -67 13 -28 24 -51 24 -51 0 -1 -26 -1
-57 0 -32 1 -80 9 -106 18 -38 14 -52 15 -63 5 -33 -27 -15 -46 72 -74 27 -9
72 -26 101 -37 44 -18 59 -20 102 -11 40 8 55 7 71 -4 21 -15 28 -5 9 14 -12
12 -29 133 -19 133 15 0 61 -43 76 -71 18 -36 18 -155 -1 -139 -7 6 -22 5 -42
-2 -28 -11 -40 -8 -122 31 -50 23 -96 39 -101 36 -5 -3 -20 1 -32 9 -30 19
-141 47 -149 38 -4 -4 -24 -46 -45 -95 -30 -70 -41 -86 -55 -82 -73 24 -185
24 -259 0 -14 -4 -24 11 -55 85 -21 49 -39 90 -42 90 -2 0 -11 -4 -21 -10 -9
-5 -56 -27 -103 -48 -92 -42 -203 -111 -258 -161 -19 -17 -43 -31 -52 -31 -10
0 -22 -6 -26 -13 -12 -20 -78 -57 -100 -57 -12 0 -27 -8 -34 -17 -12 -15 -12
-16 6 -9 11 4 32 10 47 13 15 3 33 12 39 19 26 31 28 11 3 -23 -52 -71 -78
-93 -114 -99 -27 -5 -39 -13 -49 -36 -15 -33 -8 -50 8 -21 11 21 87 60 97 50
10 -9 -15 -73 -35 -91 -10 -9 -35 -20 -55 -23 -32 -5 -36 -4 -30 12 5 13 4 16
-5 11 -6 -4 -9 -16 -6 -27 4 -11 2 -19 -4 -19 -6 0 -11 4 -11 9 0 5 -11 23
-24 39 -33 39 -37 104 -9 157 12 22 27 61 33 88 18 70 40 59 63 -32 l13 -52
14 28 c18 37 23 66 10 58 -5 -3 -10 -14 -10 -23 -1 -9 -10 1 -21 23 -14 27
-19 51 -15 74 5 33 44 101 58 101 11 0 21 -87 14 -120 -7 -36 0 -37 31 -8 26
24 30 40 9 32 -18 -7 -39 97 -26 129 12 30 57 83 64 76 4 -3 7 -25 9 -47 1
-23 7 -40 12 -39 6 2 8 25 7 50 -4 43 -1 50 42 94 l46 48 0 -50 c0 -31 -7 -62
-18 -80 -27 -45 -18 -67 25 -62 47 7 54 17 10 17 -20 0 -38 4 -42 9 -6 10 61
28 80 22 6 -2 24 -7 40 -10 l30 -7 -41 -27 c-40 -27 -119 -43 -130 -26 -10 16
-53 9 -64 -10 -15 -29 -13 -31 23 -17 17 8 47 11 65 9 27 -4 56 6 145 50 62
31 144 64 182 73 39 10 71 19 73 20 5 3 -28 64 -35 64 -3 0 -33 -10 -67 -22
-64 -22 -90 -38 -65 -38 7 0 -4 -12 -26 -25 -43 -27 -112 -34 -133 -13 -8 8
-15 8 -27 -2 -8 -7 -17 -11 -18 -9 -2 2 1 32 6 67 8 54 15 69 52 108 23 26 45
42 48 38 9 -15 -1 -82 -17 -113 l-16 -29 56 -4 c36 -2 58 1 63 9 16 29 263
118 309 112 4 -1 24 -1 45 0 31 1 40 6 44 22 l6 22 16 -21 c13 -18 29 -22 96
-26 111 -6 225 -34 225 -57 0 -4 8 -10 17 -14 13 -4 10 2 -8 22 -27 29 -69 88
-69 96 0 9 101 -12 135 -29z m-702 -1 c-43 -71 -106 -112 -170 -113 l-31 0 18
38 c10 20 27 45 38 56 26 23 88 45 130 46 l32 0 -17 -27z m861 -53 c8 -14 18
-49 22 -78 6 -45 4 -52 -10 -52 -10 0 -15 -3 -13 -7 5 -7 -15 -11 -70 -14 -33
-2 -117 41 -104 54 5 5 38 10 73 11 l64 1 -18 31 c-10 17 -21 52 -24 78 l-7
48 36 -23 c19 -13 42 -35 51 -49z m206 -181 c18 -34 19 -47 12 -90 -5 -27 -6
-52 -2 -54 5 -3 11 17 15 45 4 27 10 50 14 50 3 0 19 -19 34 -42 29 -45 31
-68 9 -135 -15 -45 -7 -41 19 9 l21 42 19 -23 c27 -33 24 -91 -7 -143 -24 -41
-29 -43 -62 -40 -32 4 -55 24 -172 143 -122 125 -144 143 -225 184 -49 25
-116 55 -147 67 -32 11 -58 25 -58 29 0 12 7 11 61 -5 49 -15 123 -51 177 -87
17 -11 32 -18 32 -15 0 3 -24 21 -52 41 -29 19 -47 35 -41 35 20 0 172 -120
201 -158 68 -89 102 -119 141 -126 21 -3 50 -15 64 -27 26 -19 27 -19 27 -2 0
30 -21 43 -67 43 -35 0 -50 6 -83 36 -22 20 -40 40 -40 45 0 16 92 10 112 -8
27 -25 33 -9 6 19 -19 20 -31 23 -73 20 -44 -3 -54 1 -87 28 -21 17 -38 36
-38 41 0 15 94 10 116 -6 27 -20 37 -19 24 4 -5 11 -10 47 -10 81 0 58 1 60
20 50 11 -6 29 -29 40 -51z m-1150 -119 c42 -42 15 -87 -46 -77 -64 11 -107
-24 -192 -156 -110 -169 -134 -361 -71 -557 20 -62 57 -135 65 -127 2 2 -7 26
-20 53 -33 69 -46 140 -46 253 0 148 47 306 96 325 29 11 55 -13 52 -47 -2
-27 -8 -33 -30 -35 -60 -7 -104 -138 -96 -286 10 -168 77 -316 197 -437 l57
-57 45 8 c24 5 113 12 197 16 144 7 152 8 146 26 -3 11 -2 47 2 81 l7 62 15
-55 c10 -40 11 -62 4 -82 l-10 -28 83 0 c46 0 137 -7 203 -16 145 -18 158 -14
228 74 129 163 191 393 150 563 -18 80 -45 121 -84 131 -27 7 -32 13 -32 38 0
35 30 56 58 41 71 -39 116 -314 78 -483 -9 -40 -30 -97 -46 -127 -17 -30 -28
-56 -26 -58 8 -9 66 98 88 162 31 94 33 319 4 405 -32 95 -76 166 -150 245
l-72 76 -42 -7 c-51 -8 -72 6 -72 47 0 21 7 32 24 41 74 33 265 -179 326 -362
32 -94 39 -293 15 -393 -31 -128 -112 -257 -230 -366 -25 -23 -45 -44 -45 -46
0 -13 36 -2 57 17 l23 21 0 -26 0 -26 -107 5 c-58 3 -109 7 -113 9 -4 2 -53 7
-111 10 -172 10 -194 12 -204 15 -5 2 -21 0 -35 -3 -25 -6 -206 -18 -338 -22
-40 -1 -78 -7 -84 -13 -7 -7 -19 -7 -35 -1 -17 6 -30 6 -39 -2 -17 -14 -44 4
-44 28 0 17 -31 73 -41 73 -3 0 -5 -23 -3 -51 2 -37 0 -49 -8 -41 -13 13 -12
86 0 109 7 12 14 9 35 -16 14 -18 29 -47 33 -66 6 -36 24 -39 24 -4 0 20 0 20
26 0 25 -20 54 -28 54 -15 0 3 -32 41 -71 83 -133 147 -188 256 -209 412 -26
192 34 386 169 546 59 71 133 133 157 133 8 0 23 -9 34 -20z m468 -79 c2 -22
10 -35 25 -40 13 -5 37 -23 55 -39 42 -39 35 -56 -46 -110 -56 -39 -80 -48
-155 -57 -21 -2 -41 -7 -46 -10 -5 -3 -7 3 -4 14 3 14 16 20 52 23 52 5 141
44 184 80 l28 23 -49 33 c-28 19 -70 37 -98 41 -45 8 -46 9 -13 10 28 1 38 6
48 27 14 31 7 45 -8 16 -7 -14 -25 -21 -64 -25 -57 -6 -112 -30 -162 -70 -26
-22 -28 -27 -15 -42 15 -19 83 -55 102 -55 7 0 -4 14 -25 31 -20 17 -37 35
-37 40 0 10 78 69 92 69 6 0 -2 -14 -16 -31 -14 -17 -26 -36 -26 -42 0 -19 38
-71 57 -79 13 -5 10 -7 -12 -7 -22 -1 -35 -9 -47 -28 l-17 -28 -1 28 c0 17 -7
30 -17 34 -10 4 -33 21 -52 39 -26 25 -32 37 -27 55 12 47 151 119 227 119 15
0 31 5 34 11 12 19 30 3 33 -30z m-4 -82 c20 -17 33 -36 30 -44 -7 -17 -74
-58 -82 -50 -3 3 -1 5 5 5 6 0 16 13 23 29 9 24 9 34 -4 60 -21 39 -16 39 28
0z m-48 -7 c16 -32 7 -57 -23 -71 -53 -24 -98 43 -57 84 23 22 66 15 80 -13z
m-328 -205 c150 -91 166 -104 183 -152 7 -19 16 -35 19 -35 11 0 37 34 44 56
7 23 -18 59 -35 49 -5 -4 -9 1 -9 9 0 9 7 16 15 16 8 0 23 5 33 11 14 9 25 8
48 -2 29 -14 39 -34 49 -101 6 -38 25 -53 25 -20 0 42 40 79 169 157 135 81
235 161 260 209 27 50 30 26 5 -48 -15 -43 -36 -84 -52 -99 -15 -14 -103 -69
-196 -121 -94 -53 -171 -102 -172 -110 -1 -9 20 -28 52 -45 85 -48 87 -65 25
-151 l-26 -36 0 60 c0 46 -6 72 -25 106 -42 75 -52 67 -90 -72 -18 -68 -36
-126 -39 -130 -4 -4 -22 47 -41 115 -18 67 -37 126 -42 131 -12 15 -45 -22
-64 -70 -11 -29 -15 -61 -12 -94 3 -27 4 -50 2 -50 -9 0 -74 103 -74 118 0 21
43 64 84 83 44 21 41 45 -7 73 -248 139 -322 185 -337 206 -9 14 -25 50 -35
80 -10 30 -20 61 -23 69 -3 8 26 -19 65 -60 54 -56 101 -92 201 -152z m1262
97 c0 -53 -3 -64 -19 -69 -11 -3 -23 -15 -26 -26 -6 -17 -12 -19 -43 -13 -20
4 -47 13 -59 21 -21 14 -67 93 -58 101 8 8 76 -20 103 -43 l27 -22 1 37 c1 20
12 53 25 73 22 33 25 35 37 20 6 -9 12 -45 12 -79z m-1966 -8 c-3 -9 -10 -16
-15 -16 -5 0 -4 9 3 20 14 22 21 20 12 -4z m28 -78 c18 -19 34 -48 37 -67 l6
-34 24 35 c17 24 36 38 63 45 28 8 38 7 34 -1 -3 -6 -10 -28 -17 -49 -14 -42
-51 -77 -80 -77 -11 0 -19 7 -19 16 0 8 -5 12 -10 9 -8 -5 -7 -11 1 -21 25
-31 -1 -24 -31 8 -43 46 -63 94 -55 135 3 18 8 33 11 33 2 0 19 -15 36 -32z
m1979 -41 c9 -34 24 -87 33 -117 23 -78 39 -217 26 -238 -7 -13 -9 -3 -10 38
0 57 -31 217 -50 261 -10 22 -10 22 -4 -6 13 -66 13 -152 -1 -199 -15 -49 -39
-86 -58 -86 -5 0 -22 -9 -38 -20 l-28 -21 -32 23 c-39 28 -49 55 -49 121 l1
52 39 -44 c35 -39 56 -92 30 -76 -5 3 -10 11 -10 17 0 5 -9 21 -20 35 l-20 26
0 -41 c0 -73 48 -88 81 -25 7 13 15 23 18 23 12 0 86 68 80 74 -3 4 -23 -9
-45 -29 -31 -29 -40 -33 -47 -20 -4 8 -14 15 -21 15 -28 0 -63 54 -80 123 l-7
28 50 -25 c35 -18 51 -33 56 -53 l7 -28 12 30 c7 17 21 36 30 44 18 15 40 51
32 51 -3 0 -18 -14 -34 -31 -26 -28 -31 -30 -53 -18 -13 6 -31 15 -39 19 -21
9 -74 114 -60 118 21 7 73 -22 90 -50 l18 -29 5 23 c8 32 67 112 75 103 4 -4
14 -34 23 -68z m-1241 -94 c86 -45 98 -53 65 -48 -22 4 -80 13 -129 20 -55 9
-95 20 -108 32 -17 15 -88 127 -88 138 0 2 35 -17 78 -42 42 -25 124 -70 182
-100z m688 125 c-8 -13 -27 -44 -42 -71 -16 -26 -37 -52 -47 -58 -11 -5 -61
-17 -112 -25 -51 -8 -105 -17 -122 -20 -16 -3 31 27 105 67 74 39 153 84 175
99 49 35 62 37 43 8z m-1434 -131 c19 -24 40 -54 45 -68 l10 -24 1 25 c0 25
20 66 20 43 0 -7 17 -2 44 13 l44 25 -9 -43 c-12 -52 -37 -88 -72 -106 -15 -7
-27 -18 -27 -24 0 -5 -9 0 -20 13 -14 18 -19 20 -20 8 0 -8 11 -25 25 -37 14
-12 25 -26 25 -32 0 -5 5 -10 10 -10 6 0 10 9 10 20 0 23 58 92 71 84 12 -7
12 -76 0 -106 -5 -13 -23 -33 -39 -45 l-31 -23 -38 21 c-21 12 -50 35 -65 52
l-28 31 4 -94 c7 -149 30 -259 74 -362 13 -29 17 -48 10 -50 -18 -6 95 -158
119 -158 17 0 17 18 -2 70 -8 23 -13 46 -10 50 3 4 -15 46 -39 91 -43 83 -93
221 -100 283 -3 18 -10 44 -17 59 -7 15 -9 30 -6 34 8 7 70 -24 98 -50 29 -27
23 -42 -7 -18 -31 24 -56 28 -48 7 6 -17 49 -47 71 -50 8 -1 19 -9 25 -17 7
-11 9 -8 5 9 -4 19 -2 22 14 17 24 -8 32 10 27 61 l-4 39 -19 -40 c-13 -29
-20 -35 -23 -22 -4 18 47 107 61 107 4 0 7 -30 7 -67 0 -59 -3 -70 -27 -95
-15 -15 -31 -28 -36 -28 -5 0 -31 11 -58 25 -48 24 -49 24 -35 3 8 -11 38 -30
67 -42 38 -15 57 -30 70 -54 22 -43 33 -53 26 -24 -3 14 -1 22 8 22 16 0 23
18 20 50 -1 14 -3 34 -4 44 -2 30 -19 7 -29 -39 -7 -29 -11 -36 -16 -23 -8 19
27 108 43 108 19 0 35 -98 22 -131 -23 -55 -34 -61 -87 -47 -27 6 -64 26 -83
42 -32 29 -34 29 -19 6 8 -14 26 -50 39 -80 13 -30 36 -77 51 -103 16 -27 25
-53 22 -59 -5 -8 1 -9 17 -5 13 4 30 7 38 7 10 0 5 10 -14 30 l-29 30 60 0
c40 0 67 -5 80 -16 18 -15 18 -15 -11 -9 -76 16 -85 17 -85 9 0 -5 4 -16 10
-24 11 -18 -5 -40 -31 -40 -22 0 -24 -18 -8 -73 14 -52 5 -60 -99 -92 -152
-46 -246 -80 -248 -90 -2 -5 20 -21 48 -35 28 -14 62 -33 75 -44 26 -20 26
-37 -3 -124 -24 -72 -23 -73 70 -42 47 16 146 43 221 62 l136 33 -2 48 c-4 64
10 75 111 87 82 11 101 14 165 28 55 12 526 8 600 -6 39 -7 101 -15 139 -18
68 -5 104 -17 118 -38 4 -6 8 -32 8 -58 0 -31 4 -48 13 -49 16 -1 25 -3 132
-28 50 -12 134 -37 187 -56 l98 -35 0 26 c0 14 -7 47 -16 75 -24 72 -16 88 66
133 39 21 70 40 68 41 -3 3 -195 71 -223 79 -5 2 -23 8 -38 14 -16 7 -36 12
-45 12 -9 0 -25 12 -35 26 -19 25 -18 32 8 95 4 12 -1 18 -18 23 -28 7 -43 34
-27 50 25 25 8 28 -70 12 -33 -7 -34 -6 -16 9 13 9 40 15 78 15 47 0 59 4 68
20 12 22 8 25 -18 11 -9 -4 -35 -11 -58 -14 -37 -6 -42 -4 -52 19 -24 51 -10
164 19 164 17 0 41 -71 35 -103 -6 -29 -5 -30 13 -13 18 16 121 49 129 41 5
-4 -76 -156 -90 -170 -8 -7 -9 -6 -4 3 10 16 -9 15 -23 -2 -9 -11 -4 -15 29
-24 22 -5 40 -6 40 -1 0 5 -6 9 -14 9 -12 0 40 110 118 251 18 33 18 33 -20
-8 -32 -34 -48 -44 -89 -51 -46 -8 -52 -7 -68 14 -10 13 -20 36 -23 52 -6 31
12 112 25 112 26 0 63 -102 42 -114 -7 -5 -11 5 -11 27 0 39 -24 68 -34 41
-16 -42 0 -114 23 -100 7 5 9 1 5 -8 -3 -9 -1 -16 5 -16 6 0 11 4 11 9 0 5 9
7 20 4 23 -6 90 35 90 55 0 18 -21 14 -50 -8 -14 -11 -31 -20 -38 -20 -27 0 2
23 63 50 34 15 66 34 70 40 4 7 4 11 -1 8 -55 -26 -107 -48 -108 -46 -1 2 -14
18 -29 36 -23 29 -27 43 -27 99 l0 66 21 -19 c27 -24 49 -67 49 -95 0 -20 1
-20 29 7 31 32 97 75 104 68 3 -3 -16 -115 -27 -159 -22 -85 -67 -198 -138
-342 -34 -70 -32 -88 9 -96 34 -7 44 5 102 114 61 114 104 254 117 382 4 37
11 67 16 67 4 0 6 -10 4 -22 -3 -13 -8 -58 -11 -101 -10 -129 -81 -315 -161
-423 l-23 -31 165 -55 166 -55 -97 -52 c-54 -28 -102 -51 -108 -51 -5 0 -7 -8
-4 -17 13 -43 46 -160 51 -185 l6 -27 -67 26 c-76 29 -256 81 -380 110 -81 18
-83 19 -119 0 -109 -56 -253 -85 -433 -86 -147 -2 -295 18 -356 46 l-30 14 30
-5 c17 -3 59 -12 95 -20 74 -16 94 -13 29 4 -24 7 -90 32 -146 56 -56 24 -105
44 -108 44 -6 0 -92 37 -109 47 -4 3 -6 -3 -3 -13 20 -74 24 -69 -61 -89 -164
-37 -340 -90 -433 -129 -14 -6 -13 8 11 93 15 55 31 104 34 109 3 6 -31 29
-77 53 -45 23 -93 48 -107 55 l-24 13 44 20 c25 11 108 39 185 63 l141 43 -49
60 c-48 60 -135 215 -119 215 4 0 20 -25 35 -56 33 -67 48 -66 18 2 -22 50
-47 136 -59 207 -7 40 -8 168 -2 343 1 45 -1 91 -5 103 -10 34 11 24 49 -22z
m744 -48 l104 -13 -59 -23 c-81 -31 -98 -29 -157 18 -48 39 -49 41 -21 36 17
-3 77 -11 133 -18z m552 -19 c-25 -21 -54 -39 -66 -40 -11 0 -49 10 -85 22
l-64 22 115 17 c63 9 122 17 130 18 8 0 -5 -17 -30 -39z m-394 -160 c8 -36 23
-82 33 -102 10 -21 15 -38 10 -38 -5 0 -9 -12 -9 -27 0 -16 -13 -51 -29 -79
-27 -47 -34 -52 -73 -57 -53 -7 -58 -3 -21 17 16 8 46 33 67 56 31 35 37 48
34 76 -3 26 -1 31 9 22 21 -17 15 7 -6 26 -19 17 -20 17 -30 -21 -13 -47 -20
-57 -48 -72 -34 -17 -36 -13 -10 22 24 31 57 91 57 102 0 3 -4 5 -10 5 -5 0
-10 -7 -10 -16 0 -9 -15 -31 -34 -50 -25 -25 -43 -34 -67 -34 l-32 0 39 29
c21 15 50 40 63 54 22 24 22 27 7 49 -22 31 -20 66 6 135 l22 58 9 -45 c4 -25
15 -74 23 -110z m190 62 c14 -47 14 -55 0 -83 -15 -29 -14 -33 6 -61 11 -17
41 -43 66 -59 l46 -29 -36 0 c-42 0 -80 27 -98 70 -15 35 -21 37 -45 10 -43
-48 -21 -122 52 -176 21 -15 43 -32 48 -37 15 -14 -67 2 -84 16 -25 21 -61
110 -54 136 4 17 3 22 -6 16 -8 -4 -6 5 4 24 22 44 55 176 55 225 1 39 1 40
16 21 8 -11 22 -44 30 -73z m-1193 -153 c4 -30 9 -64 12 -75 3 -10 -1 -4 -10
13 -9 20 -17 74 -20 135 -3 83 -2 91 4 43 5 -33 11 -85 14 -116z m1215 -91
c26 -29 17 -37 -20 -17 -22 12 -48 67 -48 101 1 19 5 15 22 -17 11 -22 32 -52
46 -67z m-172 -70 c-18 -63 -32 -83 -65 -93 -23 -7 -23 -6 7 31 17 22 38 58
48 82 23 58 29 46 10 -20z m100 -57 c23 -26 30 -41 21 -41 -29 0 -65 40 -76
84 -16 63 -12 89 5 40 8 -23 31 -60 50 -83z m-735 62 c21 -56 22 -83 3 -118
-20 -37 -33 -41 -108 -28 -29 5 -45 15 -67 46 -16 22 -29 43 -29 48 0 14 114
-19 130 -38 8 -10 26 -18 40 -18 22 0 25 5 26 36 2 46 -11 71 -26 49 -5 -8
-10 -28 -10 -43 0 -16 -4 -26 -10 -22 -15 9 -12 40 7 80 20 42 30 44 44 8z
m1301 -106 c7 -33 -4 -87 -17 -87 -2 0 -2 24 1 53 5 47 4 50 -10 37 -8 -8 -24
-33 -35 -55 -13 -25 -20 -33 -21 -21 0 26 51 117 64 113 6 -2 14 -20 18 -40z
m-1114 -163 c21 -14 25 -14 46 -1 21 14 26 14 46 0 20 -14 31 -15 76 -5 39 8
61 8 83 -1 22 -8 36 -8 57 1 24 11 30 10 51 -10 l23 -22 15 21 c21 29 60 37
97 18 39 -19 65 -19 101 0 25 13 32 13 59 -1 17 -9 40 -13 52 -10 11 2 50 1
86 -3 50 -7 72 -5 97 6 23 10 37 12 50 4 11 -5 34 -9 52 -9 41 1 57 -16 65
-69 9 -62 -10 -71 -149 -68 -102 3 -113 1 -146 -21 -30 -20 -43 -24 -78 -18
-23 4 -47 14 -54 24 -18 26 -56 43 -70 32 -7 -5 -42 -12 -78 -16 -53 -5 -69
-3 -79 9 -9 10 -16 12 -24 5 -7 -5 -44 -10 -82 -12 -57 -1 -74 -6 -96 -26 -23
-21 -32 -23 -70 -17 -23 4 -50 14 -59 22 -9 7 -41 16 -70 18 -29 3 -56 11 -61
17 -14 23 -9 115 8 132 19 20 24 20 52 0z m-33 -382 c-3 -3 -11 0 -18 7 -9 10
-8 11 6 5 10 -3 15 -9 12 -12z"/>
<path d="M1856 2524 c16 -24 62 -54 84 -54 5 0 10 9 10 20 0 23 -53 60 -88 60
-22 0 -22 -1 -6 -26z"/>
<path d="M1468 2528 c-4 -9 -23 -18 -45 -21 -21 -3 -66 -12 -101 -19 l-63 -13
33 -25 c24 -18 47 -25 86 -26 l53 -2 25 50 c14 27 23 55 21 61 -2 6 -6 4 -9
-5z"/>
<path d="M1540 2530 c0 -18 16 -45 27 -45 29 -1 135 -30 140 -37 3 -6 -2 -8
-13 -4 -43 12 -117 26 -121 22 -3 -2 0 -14 7 -25 9 -17 20 -21 63 -21 45 1 58
6 92 35 24 21 34 35 25 36 -8 0 -24 2 -35 5 -11 2 -53 7 -93 12 -46 5 -77 13
-82 22 -8 13 -10 13 -10 0z"/>
<path d="M1483 2474 c-21 -56 -21 -56 -1 -76 16 -16 19 -30 16 -66 -3 -26 -8
-54 -12 -63 -5 -12 -1 -16 23 -16 27 0 29 2 19 20 -14 27 -5 113 15 135 16 17
15 21 -3 57 -11 22 -20 45 -20 52 0 29 -16 10 -37 -43z"/>
<path d="M961 2496 c-7 -8 -14 -27 -17 -43 -4 -24 -3 -26 9 -13 14 14 32 70
23 70 -2 0 -9 -6 -15 -14z"/>
<path d="M2134 2427 c3 -10 6 -24 6 -31 0 -7 7 -21 15 -32 14 -18 14 -18 15 7
0 15 -9 37 -21 50 -16 19 -19 20 -15 6z"/>
<path d="M846 2399 c-17 -29 -16 -59 3 -59 9 0 27 78 19 85 -2 3 -12 -9 -22
-26z"/>
<path d="M1746 2421 c-3 -5 3 -11 15 -14 16 -4 18 -3 8 9 -13 16 -16 17 -23 5z"/>
<path d="M934 2405 c-10 -8 -14 -14 -9 -15 15 0 40 18 34 24 -3 3 -14 -1 -25
-9z"/>
<path d="M975 2399 c-4 -6 -5 -13 -2 -15 7 -8 57 7 57 17 0 13 -47 11 -55 -2z"/>
<path d="M1385 2374 c35 -29 36 -31 16 -37 -26 -6 -29 -48 -5 -71 45 -46 107
29 84 100 -11 31 -13 32 -71 36 l-61 3 37 -31z"/>
<path d="M1310 2386 c0 -23 58 -146 69 -146 6 0 8 7 5 15 -4 8 -10 15 -14 15
-8 0 -4 56 6 71 6 10 -12 29 -48 50 -14 7 -18 6 -18 -5z"/>
<path d="M1550 2385 c-7 -9 -13 -33 -13 -55 0 -53 27 -84 65 -76 16 3 28 1 28
-4 0 -29 23 -2 50 56 35 78 38 100 13 85 -48 -28 -55 -39 -43 -61 12 -23 6
-70 -10 -70 -5 0 -6 16 -3 36 5 31 3 36 -17 41 -22 6 -22 7 11 34 l34 28 -51
1 c-34 0 -56 -5 -64 -15z"/>
<path d="M1130 2353 c-52 -18 -200 -99 -225 -123 -36 -34 -75 -55 -94 -51 -7
1 -20 -1 -30 -5 -11 -5 -5 -9 24 -14 37 -5 45 -2 112 54 40 32 112 78 160 102
78 39 97 53 53 37z"/>
<path d="M751 2312 c-13 -25 -14 -72 -2 -72 10 0 26 78 18 87 -3 2 -10 -4 -16
-15z"/>
<path d="M837 2323 c-4 -3 -7 -11 -7 -17 0 -6 5 -5 12 2 6 6 9 14 7 17 -3 3
-9 2 -12 -2z"/>
<path d="M2160 2322 c0 -12 19 -26 26 -19 2 2 -2 10 -11 17 -9 8 -15 8 -15 2z"/>
<path d="M2085 2310 c3 -5 18 -10 33 -9 24 0 25 1 7 9 -28 12 -47 12 -40 0z"/>
<path d="M821 2231 c-26 -7 -41 -31 -19 -31 7 0 27 9 43 20 30 20 21 24 -24
11z"/>
<path d="M670 2201 c-13 -25 -13 -71 0 -71 6 0 11 10 11 23 1 12 3 32 4 45 3
27 -1 28 -15 3z"/>
<path d="M750 2210 c0 -5 5 -10 10 -10 6 0 10 5 10 10 0 6 -4 10 -10 10 -5 0
-10 -4 -10 -10z"/>
<path d="M733 2118 c-13 -6 -23 -15 -23 -20 0 -11 37 -1 65 18 19 14 19 14 0
13 -11 0 -30 -5 -42 -11z"/>
<path d="M601 2054 c-1 -26 5 -46 14 -54 8 -7 15 -20 16 -29 0 -10 2 -11 6 -3
2 6 17 12 32 12 29 0 71 25 71 42 0 14 -48 1 -67 -17 -18 -18 -39 -19 -40 -2
-1 6 -8 30 -16 52 l-16 40 0 -41z"/>
<path d="M560 2027 c0 -17 49 -95 53 -84 3 7 -8 30 -24 52 -16 21 -29 36 -29
32z"/>
<path d="M560 1933 c0 -41 9 -63 27 -63 16 0 11 25 -13 70 l-13 25 -1 -32z"/>
<path d="M657 1892 c-27 -17 -31 -32 -10 -39 12 -4 53 35 53 49 0 12 -12 9
-43 -10z"/>
<path d="M1135 2548 c-32 -11 -75 -46 -75 -60 0 -20 51 -5 79 23 25 24 41 52
29 48 -2 0 -16 -5 -33 -11z"/>
<path d="M2030 2503 c0 -18 22 -63 32 -63 4 0 8 6 8 14 0 17 -39 66 -40 49z"/>
<path d="M2056 2411 c-3 -5 3 -11 15 -14 16 -4 18 -3 8 9 -13 16 -16 17 -23 5z"/>
<path d="M1960 2400 c0 -5 19 -10 43 -9 32 0 37 2 22 9 -28 12 -65 12 -65 0z"/>
<path d="M2243 2287 c1 -26 7 -48 12 -50 16 -3 17 56 1 78 -13 18 -14 16 -13
-28z"/>
<path d="M2166 2221 c5 -4 21 -11 36 -15 22 -5 26 -3 22 9 -4 9 -19 15 -37 15
-18 0 -27 -4 -21 -9z"/>
<path d="M2245 2210 c3 -5 10 -10 16 -10 5 0 9 5 9 10 0 6 -7 10 -16 10 -8 0
-12 -4 -9 -10z"/>
<path d="M2322 2198 c-3 -34 7 -70 18 -63 14 9 12 48 -3 69 -12 16 -13 15 -15
-6z"/>
<path d="M2220 2134 c0 -13 35 -33 60 -34 24 0 24 0 5 14 -25 17 -65 30 -65
20z"/>
<path d="M2320 2101 c0 -5 5 -13 10 -16 6 -3 10 -2 10 4 0 5 -4 13 -10 16 -5
3 -10 2 -10 -4z"/>
<path d="M2394 2085 c-12 -21 -13 -69 -2 -81 10 -9 20 38 16 72 -3 27 -4 28
-14 9z"/>
<path d="M2272 2018 c5 -15 68 -42 68 -28 0 9 -51 40 -65 40 -4 0 -5 -5 -3
-12z"/>
<path d="M2370 1976 c0 -9 5 -16 10 -16 6 0 10 4 10 9 0 6 -4 13 -10 16 -5 3
-10 -1 -10 -9z"/>
<path d="M1053 2188 c-18 -13 -33 -26 -33 -29 0 -4 23 -7 50 -8 55 -1 73 16
50 44 -17 20 -30 19 -67 -7z"/>
<path d="M1902 2201 c-8 -5 -12 -17 -10 -27 2 -15 14 -20 53 -22 29 -2 58 -10
69 -20 18 -16 18 -16 6 4 -13 20 -62 58 -90 68 -8 3 -21 2 -28 -3z"/>
<path d="M907 1893 c-8 -10 -21 -31 -27 -48 -10 -28 -10 -28 7 -13 10 9 28 19
41 23 16 5 22 13 20 28 -4 27 -21 32 -41 10z"/>
<path d="M2083 1903 c-22 -8 -14 -31 17 -46 16 -9 32 -12 34 -8 8 12 -38 59
-51 54z"/>
<path d="M1487 2034 c-14 -15 -6 -34 14 -34 14 0 19 5 17 17 -3 18 -20 27 -31
17z"/>
<path d="M1941 1919 c-25 -22 -105 -76 -178 -121 -74 -44 -132 -82 -130 -85 5
-4 257 138 305 172 23 17 57 63 51 69 -2 2 -24 -14 -48 -35z"/>
<path d="M1010 1941 c0 -18 50 -60 121 -101 41 -23 107 -62 148 -86 41 -25 76
-42 79 -40 4 4 -132 96 -143 96 -10 0 -112 69 -153 104 -46 38 -52 41 -52 27z"/>
<path d="M1478 1773 c7 -3 16 -2 19 1 4 3 -2 6 -13 5 -11 0 -14 -3 -6 -6z"/>
<path d="M1493 1753 c-7 -2 -13 -19 -13 -37 0 -19 -9 -44 -19 -58 -20 -25 -20
-25 8 -114 16 -51 31 -83 34 -74 33 85 55 175 47 191 -6 10 -10 29 -10 43 0
49 -14 63 -47 49z"/>
<path d="M1312 1567 c-25 -27 -27 -38 -10 -55 10 -10 15 -3 25 30 7 23 11 43
9 45 -1 2 -12 -7 -24 -20z"/>
<path d="M1664 1564 c3 -9 9 -27 12 -41 6 -22 8 -23 16 -9 12 21 2 52 -18 60
-12 5 -15 2 -10 -10z"/>
<path d="M2438 1950 c-4 -8 -9 -31 -12 -50 -6 -32 -5 -33 10 -19 10 11 14 28
12 50 -3 21 -6 28 -10 19z"/>
<path d="M2319 1891 c17 -30 38 -43 56 -33 15 8 14 10 -7 24 -13 8 -31 17 -41
21 -14 5 -16 3 -8 -12z"/>
<path d="M2406 1845 c4 -8 8 -15 10 -15 2 0 4 7 4 15 0 8 -4 15 -10 15 -5 0
-7 -7 -4 -15z"/>
<path d="M530 1790 c11 -37 19 -50 31 -50 6 0 7 6 2 13 -4 6 -8 18 -9 25 -4
25 -13 42 -23 42 -6 0 -6 -11 -1 -30z"/>
<path d="M649 1793 c-32 -39 -38 -49 -31 -60 11 -18 41 9 52 46 10 34 1 40
-21 14z"/>
<path d="M2461 1791 c-16 -29 -20 -46 -13 -53 15 -15 44 35 40 68 -3 26 -4 26
-27 -15z"/>
<path d="M2333 1797 c4 -10 7 -22 7 -26 0 -11 39 -51 50 -51 21 0 8 28 -27 61
-23 22 -34 27 -30 16z"/>
<path d="M2420 1716 c0 -9 5 -16 10 -16 6 0 10 4 10 9 0 6 -4 13 -10 16 -5 3
-10 -1 -10 -9z"/>
<path d="M2463 1650 c-23 -42 -18 -58 12 -37 17 13 32 77 17 77 -4 0 -17 -18
-29 -40z"/>
<path d="M2340 1670 c0 -20 29 -67 44 -73 26 -10 27 9 3 44 -23 34 -47 49 -47
29z"/>
<path d="M2420 1586 c0 -9 5 -16 10 -16 6 0 10 4 10 9 0 6 -4 13 -10 16 -5 3
-10 -1 -10 -9z"/>
<path d="M2438 1509 c-26 -19 -38 -49 -20 -49 13 1 38 24 51 48 15 27 4 28
-31 1z"/>
<path d="M2380 1455 c0 -8 5 -15 10 -15 6 0 10 7 10 15 0 8 -4 15 -10 15 -5 0
-10 -7 -10 -15z"/>
<path d="M1090 1775 c0 -20 47 -54 85 -61 60 -11 55 0 -16 38 -47 25 -69 33
-69 23z"/>
<path d="M1838 1752 c-98 -55 -98 -56 4 -31 27 7 42 19 53 39 9 17 14 30 13
30 -2 0 -33 -17 -70 -38z"/>
<path d="M520 1663 c0 -24 15 -46 33 -49 12 -2 11 5 -5 32 -23 38 -28 42 -28
17z"/>
<path d="M625 1645 c-25 -31 -27 -55 -5 -55 10 0 50 63 50 79 0 21 -19 11 -45
-24z"/>
<path d="M505 1599 c-5 -7 -1 -18 11 -26 24 -17 33 2 11 24 -11 12 -16 12 -22
2z"/>
<path d="M575 1591 c-3 -5 -1 -12 5 -16 5 -3 10 1 10 9 0 18 -6 21 -15 7z"/>
<path d="M642 1521 c-18 -31 -19 -41 -9 -49 20 -17 38 2 44 47 7 52 -7 53 -35
2z"/>
<path d="M520 1532 c0 -16 64 -73 77 -68 7 3 13 -1 13 -9 0 -7 5 -17 10 -20 6
-3 10 2 10 12 0 10 -16 29 -36 43 -19 14 -41 31 -49 38 -16 14 -25 16 -25 4z"/>
<path d="M2297 1433 c-6 -10 7 -81 17 -90 3 -3 12 -3 21 1 14 5 14 9 0 43 -19
44 -30 58 -38 46z"/>
<path d="M2404 1388 c-55 -44 -75 -66 -64 -73 5 -3 13 1 16 9 3 9 10 13 15 11
14 -9 66 23 72 45 8 30 -7 33 -39 8z"/>
<path d="M610 1260 c15 -29 77 -57 91 -43 8 8 -1 18 -33 37 -56 32 -73 34 -58
6z"/>
<path d="M2179 1218 c-1 -7 -2 -26 -4 -42 -3 -40 5 -67 18 -59 6 4 8 0 4 -10
-7 -19 8 -23 19 -6 4 7 9 7 13 1 9 -14 87 22 100 47 10 18 9 19 -20 11 -18 -5
-40 -17 -50 -26 -21 -19 -49 -12 -50 13 -1 10 -2 23 -4 28 -1 6 -3 20 -3 33
-2 23 -21 31 -23 10z"/>
<path d="M1190 714 c-136 -19 -144 -22 -95 -40 137 -50 269 -84 330 -84 24 0
55 -4 69 -9 27 -11 245 29 303 55 17 8 35 14 41 14 5 0 23 7 38 15 16 8 38 15
48 15 12 0 16 3 10 9 -38 34 -554 52 -744 25z"/>
<path d="M990 682 c0 -9 126 -87 155 -96 94 -28 337 -48 348 -28 3 4 -23 7
-56 8 -99 1 -223 32 -325 80 -92 43 -122 52 -122 36z"/>
<path d="M1887 645 c-73 -35 -138 -57 -214 -71 -6 -1 -35 -7 -65 -14 -29 -6
-78 -13 -108 -16 -30 -3 -65 -7 -78 -10 -12 -2 -63 1 -113 7 -50 6 -93 9 -95
7 -4 -5 164 -52 226 -64 93 -18 238 4 372 57 63 25 174 82 206 107 l23 18 -33
10 c-29 9 -43 6 -121 -31z"/>
<path d="M955 670 c-5 -8 73 -56 80 -48 1 2 -15 15 -36 30 -21 15 -41 23 -44
18z"/>
<path d="M2026 631 c-28 -31 -215 -118 -294 -137 -94 -22 -87 -30 9 -10 103
22 144 33 220 63 59 22 67 29 77 61 14 43 11 48 -12 23z"/>
<path d="M1218 1628 c8 -8 17 -8 34 0 22 10 21 11 -11 11 -27 1 -32 -2 -23
-11z"/>
<path d="M1735 1630 c3 -5 12 -10 20 -10 8 0 17 5 20 10 4 6 -5 10 -20 10 -15
0 -24 -4 -20 -10z"/>
<path d="M1387 1536 c-12 -31 -8 -63 13 -87 23 -28 23 -22 6 51 -9 38 -14 49
-19 36z"/>
<path d="M1601 1550 c-6 -11 -29 -125 -26 -128 2 -2 11 8 20 21 11 17 15 40
12 69 -2 24 -5 41 -6 38z"/>
<path d="M670 1162 c0 -17 47 -52 79 -58 48 -10 37 15 -20 43 -49 24 -59 27
-59 15z"/>
<path d="M790 1100 c0 -5 7 -10 16 -10 8 0 12 5 9 10 -3 6 -10 10 -16 10 -5 0
-9 -4 -9 -10z"/>
<path d="M980 893 c0 -42 3 -54 11 -46 8 8 16 9 29 1 21 -13 50 -4 50 15 0 9
-12 13 -35 12 -23 0 -31 3 -25 9 6 6 10 23 10 38 0 21 -5 28 -20 28 -18 0 -20
-7 -20 -57z"/>
<path d="M1077 943 c-2 -5 -2 -29 1 -55 5 -55 32 -70 32 -18 0 17 -5 30 -12
30 -6 0 -4 7 5 18 10 10 14 22 10 25 -9 9 -31 9 -36 0z"/>
<path d="M1247 943 c-4 -3 -17 -7 -30 -9 -12 -1 -24 -3 -27 -4 -3 -1 -16 -3
-29 -3 -31 -2 -52 -34 -31 -47 27 -18 42 -13 28 10 -7 10 -9 23 -4 27 10 10
37 -27 29 -40 -3 -5 0 -8 8 -5 7 2 16 15 19 29 4 15 8 20 13 12 4 -7 5 -23 2
-35 -5 -21 -11 -23 -47 -20 -28 3 -39 1 -34 -7 4 -6 18 -11 31 -11 13 0 26 -4
30 -9 3 -6 -12 -9 -36 -8 -57 3 -60 -17 -3 -21 39 -2 46 0 51 18 3 11 13 20
23 20 13 0 17 8 16 35 -1 35 18 45 20 10 1 -11 2 -25 3 -31 0 -8 23 -12 60
-11 51 1 58 3 53 19 -5 19 -27 24 -37 8 -13 -21 -44 -10 -47 16 -2 15 -12 32
-23 38 -11 6 -23 14 -26 19 -3 4 -8 4 -12 0z"/>
<path d="M1350 940 c0 -5 -6 -10 -13 -10 -9 0 -12 -10 -9 -30 3 -25 7 -28 18
-19 8 6 14 17 14 24 0 8 8 16 18 18 16 4 16 5 -1 6 -10 0 -15 6 -12 11 3 6 1
10 -4 10 -6 0 -11 -4 -11 -10z"/>
<path d="M1447 943 c-4 -3 -7 -28 -7 -55 l0 -49 43 3 c35 2 43 7 45 26 2 12
-2 22 -9 22 -8 0 -8 4 2 16 11 14 10 18 -6 30 -20 15 -57 19 -68 7z m53 -33
c0 -6 -5 -10 -11 -10 -14 0 -40 26 -32 33 8 8 43 -11 43 -23z m-2 -32 c16 -16
15 -28 -2 -28 -7 0 -16 9 -19 20 -6 23 3 26 21 8z"/>
<path d="M1637 943 c-2 -5 -5 -29 -6 -55 -2 -42 1 -48 19 -48 16 0 20 6 20 30
0 17 -5 30 -12 30 -9 0 -9 3 0 12 16 16 15 38 -2 38 -8 0 -17 -3 -19 -7z"/>
<path d="M1935 940 c3 -5 -2 -10 -12 -10 -26 0 -43 -19 -43 -48 0 -13 -4 -21
-9 -18 -5 3 -7 14 -4 24 6 24 -21 46 -49 39 -11 -3 -29 -2 -39 4 -12 6 -20 5
-24 -1 -4 -6 -11 -8 -16 -4 -6 3 -21 3 -35 0 -35 -9 -30 -49 6 -55 24 -3 24
-2 7 16 -9 11 -14 23 -10 26 9 9 33 -12 33 -29 0 -8 6 -11 16 -7 9 3 14 13 11
24 -7 25 5 24 20 0 9 -15 9 -21 1 -23 -6 -2 -9 -12 -5 -21 5 -14 21 -16 99
-15 l93 1 -4 41 c-2 23 -8 47 -13 54 -12 14 -32 16 -23 2z m-99 -64 c-9 -35
-28 -33 -22 2 2 15 5 31 5 37 1 5 6 4 12 -2 7 -7 9 -23 5 -37z m102 6 c2 -19
-1 -32 -8 -32 -13 0 -29 40 -22 58 8 23 27 7 30 -26z"/>
<path d="M1541 888 c-1 -42 2 -48 19 -48 17 0 20 7 20 42 0 39 1 41 15 22 13
-16 16 -17 24 -4 13 19 -23 34 -49 20 -13 -7 -20 -6 -23 3 -3 6 -6 -9 -6 -35z"/>
<path d="M1988 905 c-8 -19 -9 -31 -1 -43 14 -23 66 -27 83 -8 15 19 0 21 -19
4 -10 -11 -16 -8 -32 11 -21 26 -25 55 -6 48 6 -2 11 -11 11 -20 -1 -13 2 -14
18 -6 26 14 18 33 -15 37 -21 3 -30 -3 -39 -23z"/>
<path d="M1401 904 c0 -11 3 -14 6 -6 3 7 2 16 -1 19 -3 4 -6 -2 -5 -13z"/>
<path d="M1705 850 c3 -5 17 -10 30 -10 13 0 27 -4 30 -10 8 -12 -1 -13 -43
-1 -26 8 -34 7 -41 -8 -8 -15 -3 -17 40 -19 53 -2 73 15 49 43 -14 17 -75 21
-65 5z"/>
</g>
</svg>
